<?xml version="1.0" encoding="UTF-8" standalone="no"?>
<!DOCTYPE svg PUBLIC "-//W3C//DTD SVG 1.1//EN"
 "http://www.w3.org/Graphics/SVG/1.1/DTD/svg11.dtd">
<!-- Generated by graphviz version 2.26.3 (20100126.1600)
 -->
<!-- Title: prof Pages: 1 -->
<svg width="576pt" height="286pt"
 viewBox="0.00 0.00 576.00 285.65" xmlns="http://www.w3.org/2000/svg" xmlns:xlink="http://www.w3.org/1999/xlink">
<g id="graph1" class="graph" transform="scale(0.411606 0.411606) rotate(0) translate(4 690)">
<title>prof</title>
<polygon fill="white" stroke="white" points="-4,5 -4,-690 1396.4,-690 1396.4,5 -4,5"/>
<!-- entity -->
<g id="node1" class="node"><title>entity</title>
<ellipse fill="lightgrey" stroke="black" cx="569.398" cy="-245" rx="41.0122" ry="18.3848"/>
<text text-anchor="middle" x="569.398" y="-241.4" font-family="Times Roman,serif" font-size="14.00">entity</text>
</g>
<!-- module -->
<g id="node3" class="node"><title>module</title>
<ellipse fill="lightgrey" stroke="black" cx="789.398" cy="-50" rx="46.8775" ry="18.3848"/>
<text text-anchor="middle" x="789.398" y="-46.4" font-family="Times Roman,serif" font-size="14.00">module</text>
</g>
<!-- entity&#45;&gt;module -->
<g id="edge2" class="edge"><title>entity&#45;&gt;module</title>
<path fill="none" stroke="black" d="M588.155,-228.374C627.169,-193.794 717.182,-114.009 762.418,-73.9139"/>
<polygon fill="black" stroke="black" points="764.899,-76.3917 770.061,-67.1394 760.256,-71.1533 764.899,-76.3917"/>
</g>
<!-- management -->
<g id="node4" class="node"><title>management</title>
<ellipse fill="lightgrey" stroke="black" cx="428.398" cy="-441" rx="75.1594" ry="18.3848"/>
<text text-anchor="middle" x="428.398" y="-437.4" font-family="Times Roman,serif" font-size="14.00">management</text>
</g>
<!-- management&#45;&gt;entity -->
<g id="edge4" class="edge"><title>management&#45;&gt;entity</title>
<path fill="none" stroke="black" d="M441.663,-422.561C466.891,-387.492 521.841,-311.107 550.755,-270.914"/>
<polygon fill="black" stroke="black" points="553.679,-272.843 556.678,-262.682 547.997,-268.756 553.679,-272.843"/>
</g>
<!-- management&#45;&gt;module -->
<g id="edge6" class="edge"><title>management&#45;&gt;module</title>
<path fill="none" stroke="black" d="M432.363,-422.371C441.624,-382.503 467.896,-287.549 519.398,-226 583.344,-149.578 688.982,-94.3105 747.361,-67.7481"/>
<polygon fill="black" stroke="black" points="748.964,-70.8653 756.656,-63.5801 746.1,-64.4781 748.964,-70.8653"/>
</g>
<!-- process -->
<g id="node7" class="node"><title>process</title>
<ellipse fill="lightgrey" stroke="black" cx="282.398" cy="-636" rx="48.0833" ry="18.3848"/>
<text text-anchor="middle" x="282.398" y="-632.4" font-family="Times Roman,serif" font-size="14.00">process</text>
</g>
<!-- process&#45;&gt;entity -->
<g id="edge10" class="edge"><title>process&#45;&gt;entity</title>
<path fill="none" stroke="black" d="M312.541,-621.375C362.069,-595.763 460.352,-538.003 512.398,-460 551.42,-401.515 563.768,-317.469 567.645,-273.803"/>
<polygon fill="black" stroke="black" points="571.152,-273.859 568.46,-263.612 564.174,-273.301 571.152,-273.859"/>
</g>
<!-- process&#45;&gt;module -->
<g id="edge8" class="edge"><title>process&#45;&gt;module</title>
<path fill="none" stroke="black" d="M242.763,-625.475C154.173,-599.808 -47.7066,-528.219 10.3976,-422 160.07,-148.387 581.14,-73.7962 733.492,-55.4607"/>
<polygon fill="black" stroke="black" points="734.035,-58.9211 743.562,-54.2842 733.223,-51.9684 734.035,-58.9211"/>
</g>
<!-- process&#45;&gt;management -->
<g id="edge12" class="edge"><title>process&#45;&gt;management</title>
<path fill="none" stroke="black" stroke-dasharray="1,5" d="M295.871,-618.004C321.772,-583.411 378.607,-507.501 408.74,-467.255"/>
<polygon fill="black" stroke="black" points="411.553,-469.338 414.744,-459.236 405.949,-465.143 411.553,-469.338"/>
</g>
<!-- message -->
<g id="node12" class="node"><title>message</title>
<ellipse fill="lightgrey" stroke="black" cx="282.398" cy="-441" rx="53.2379" ry="18.3848"/>
<text text-anchor="middle" x="282.398" y="-437.4" font-family="Times Roman,serif" font-size="14.00">message</text>
</g>
<!-- process&#45;&gt;message -->
<g id="edge14" class="edge"><title>process&#45;&gt;message</title>
<path fill="none" stroke="black" stroke-dasharray="1,5" d="M278.219,-617.303C275.07,-583.088 274.813,-510.202 277.448,-469.679"/>
<polygon fill="black" stroke="black" points="281.714,-459.911 277.453,-469.611 274.734,-459.371 281.714,-459.911"/>
</g>
<!-- message&#45;&gt;entity -->
<g id="edge22" class="edge"><title>message&#45;&gt;entity</title>
<path fill="none" stroke="black" d="M306.867,-424.289C358.958,-388.715 480.74,-305.546 538.26,-266.265"/>
<polygon fill="black" stroke="black" points="540.308,-269.104 546.592,-260.574 536.36,-263.324 540.308,-269.104"/>
</g>
<!-- message&#45;&gt;module -->
<g id="edge24" class="edge"><title>message&#45;&gt;module</title>
<path fill="none" stroke="black" d="M296.905,-422.985C328.956,-383.913 409.399,-289.774 490.398,-226 576.425,-158.266 691.035,-97.9859 750.262,-68.7246"/>
<polygon fill="black" stroke="black" points="751.845,-71.8467 759.28,-64.2983 748.761,-65.5629 751.845,-71.8467"/>
</g>
<!-- message&#45;&gt;process -->
<g id="edge26" class="edge"><title>message&#45;&gt;process</title>
<path fill="none" stroke="black" stroke-dasharray="1,5" d="M286.571,-459.641C289.723,-493.813 289.983,-566.695 287.351,-607.254"/>
<polygon fill="black" stroke="black" points="283.856,-607.063 286.576,-617.303 290.835,-607.601 283.856,-607.063"/>
</g>
<!-- profile -->
<g id="node13" class="node"><title>profile</title>
<ellipse fill="lightgrey" stroke="black" cx="1294.4" cy="-441" rx="41.2167" ry="18.3848"/>
<text text-anchor="middle" x="1294.4" y="-437.4" font-family="Times Roman,serif" font-size="14.00">profile</text>
</g>
<!-- profile&#45;&gt;module -->
<g id="edge18" class="edge"><title>profile&#45;&gt;module</title>
<path fill="none" stroke="black" d="M1294.99,-422.311C1295.25,-381.49 1290.2,-283.429 1239.4,-226 1134.83,-107.781 940.902,-68.2659 845.444,-55.6236"/>
<polygon fill="black" stroke="black" points="845.773,-52.1373 835.411,-54.3462 844.889,-59.0812 845.773,-52.1373"/>
</g>
<!-- desktop -->
<g id="node15" class="node"><title>desktop</title>
<ellipse fill="lightgrey" stroke="black" cx="1341.4" cy="-245" rx="50.2046" ry="18.3848"/>
<text text-anchor="middle" x="1341.4" y="-241.4" font-family="Times Roman,serif" font-size="14.00">desktop</text>
</g>
<!-- profile&#45;&gt;desktop -->
<g id="edge16" class="edge"><title>profile&#45;&gt;desktop</title>
<path fill="none" stroke="black" d="M1298.82,-422.561C1307.06,-388.196 1324.81,-314.158 1334.59,-273.378"/>
<polygon fill="black" stroke="black" points="1338.03,-274.073 1336.95,-263.533 1331.22,-272.441 1338.03,-274.073"/>
</g>
<!-- desktop&#45;&gt;module -->
<g id="edge34" class="edge"><title>desktop&#45;&gt;module</title>
<path fill="none" stroke="black" d="M1305.18,-232.206C1207.84,-197.819 940.757,-103.47 834.178,-65.819"/>
<polygon fill="black" stroke="black" points="835.27,-62.493 824.675,-62.4622 832.938,-69.0933 835.27,-62.493"/>
</g>
<!-- menu -->
<g id="node28" class="node"><title>menu</title>
<ellipse fill="lightgrey" stroke="black" cx="1341.4" cy="-50" rx="39.0967" ry="18.3848"/>
<text text-anchor="middle" x="1341.4" y="-46.4" font-family="Times Roman,serif" font-size="14.00">menu</text>
</g>
<!-- desktop&#45;&gt;menu -->
<g id="edge36" class="edge"><title>desktop&#45;&gt;menu</title>
<path fill="none" stroke="black" stroke-dasharray="1,5" d="M1341.4,-226.303C1341.4,-192.088 1341.4,-119.202 1341.4,-78.6786"/>
<polygon fill="black" stroke="black" points="1344.9,-68.6408 1341.4,-78.6408 1337.9,-68.6408 1344.9,-68.6408"/>
</g>
<!-- role -->
<g id="node17" class="node"><title>role</title>
<ellipse fill="lightgrey" stroke="black" cx="1167.4" cy="-245" rx="29.9071" ry="18.3848"/>
<text text-anchor="middle" x="1167.4" y="-241.4" font-family="Times Roman,serif" font-size="14.00">role</text>
</g>
<!-- role&#45;&gt;module -->
<g id="edge20" class="edge"><title>role&#45;&gt;module</title>
<path fill="none" stroke="black" d="M1144.32,-233.095C1081.09,-200.477 904.617,-109.438 826.925,-69.3596"/>
<polygon fill="black" stroke="black" points="828.447,-66.2061 817.955,-64.7319 825.237,-72.4271 828.447,-66.2061"/>
</g>
<!-- user -->
<g id="node22" class="node"><title>user</title>
<ellipse fill="lightgrey" stroke="black" cx="1225.4" cy="-636" rx="33.234" ry="18.3848"/>
<text text-anchor="middle" x="1225.4" y="-632.4" font-family="Times Roman,serif" font-size="14.00">user</text>
</g>
<!-- user&#45;&gt;module -->
<g id="edge28" class="edge"><title>user&#45;&gt;module</title>
<path fill="none" stroke="black" d="M1227.08,-617.285C1233.12,-545.714 1251.13,-290.151 1206.4,-226 1122.36,-105.468 938.608,-67.1154 845.647,-55.1969"/>
<polygon fill="black" stroke="black" points="845.937,-51.7062 835.585,-53.965 845.086,-58.6544 845.937,-51.7062"/>
</g>
<!-- user&#45;&gt;profile -->
<g id="edge32" class="edge"><title>user&#45;&gt;profile</title>
<path fill="none" stroke="black" stroke-dasharray="1,5" d="M1231.89,-617.655C1244.01,-583.393 1270.16,-509.492 1284.5,-468.976"/>
<polygon fill="black" stroke="black" points="1291.17,-460.606 1284.54,-468.866 1284.57,-458.271 1291.17,-460.606"/>
</g>
<!-- user&#45;&gt;role -->
<g id="edge30" class="edge"><title>user&#45;&gt;role</title>
<path fill="none" stroke="black" stroke-dasharray="1,5" d="M1222.64,-617.404C1213.33,-554.625 1183,-350.205 1171.7,-273.992"/>
<polygon fill="black" stroke="black" points="1173.64,-263.196 1171.64,-273.601 1166.71,-264.223 1173.64,-263.196"/>
</g>
<!-- action -->
<g id="node29" class="node"><title>action</title>
<ellipse fill="lightgrey" stroke="black" cx="60.3976" cy="-441" rx="41.2167" ry="18.3848"/>
<text text-anchor="middle" x="60.3976" y="-437.4" font-family="Times Roman,serif" font-size="14.00">action</text>
</g>
<!-- action&#45;&gt;entity -->
<g id="edge40" class="edge"><title>action&#45;&gt;entity</title>
<path fill="none" stroke="black" stroke-dasharray="1,5" d="M91.8537,-428.887C180.074,-394.917 429.822,-298.746 528.529,-260.737"/>
<polygon fill="black" stroke="black" points="530.077,-263.892 538.151,-257.032 527.562,-257.359 530.077,-263.892"/>
</g>
<!-- action&#45;&gt;module -->
<g id="edge38" class="edge"><title>action&#45;&gt;module</title>
<path fill="none" stroke="black" d="M81.5719,-425.03C132.124,-387.338 264.588,-291.126 384.398,-226 510.744,-157.32 669.375,-94.795 745.146,-66.2786"/>
<polygon fill="black" stroke="black" points="746.704,-69.4324 754.84,-62.6458 744.248,-62.8775 746.704,-69.4324"/>
</g>
<!-- service -->
<g id="node32" class="node"><title>service</title>
<ellipse fill="lightgrey" stroke="black" cx="165.398" cy="-441" rx="45.9619" ry="18.3848"/>
<text text-anchor="middle" x="165.398" y="-437.4" font-family="Times Roman,serif" font-size="14.00">service</text>
</g>
<!-- service&#45;&gt;entity -->
<g id="edge44" class="edge"><title>service&#45;&gt;entity</title>
<path fill="none" stroke="black" d="M194.778,-426.746C266.927,-391.743 452.718,-301.607 532.309,-262.994"/>
<polygon fill="black" stroke="black" points="534.004,-266.061 541.474,-258.547 530.949,-259.763 534.004,-266.061"/>
</g>
<!-- service&#45;&gt;module -->
<g id="edge42" class="edge"><title>service&#45;&gt;module</title>
<path fill="none" stroke="black" d="M184.685,-424.008C228.614,-385.784 340.297,-291.276 443.398,-226 548.414,-159.51 681.697,-97.4758 748.013,-67.9864"/>
<polygon fill="black" stroke="black" points="749.573,-71.1235 757.3,-63.875 746.739,-64.7227 749.573,-71.1235"/>
</g>
<!-- document -->
<g id="node35" class="node"><title>document</title>
<ellipse fill="lightgrey" stroke="black" cx="657.398" cy="-441" rx="60.1041" ry="18.3848"/>
<text text-anchor="middle" x="657.398" y="-437.4" font-family="Times Roman,serif" font-size="14.00">document</text>
</g>
<!-- document&#45;&gt;entity -->
<g id="edge48" class="edge"><title>document&#45;&gt;entity</title>
<path fill="none" stroke="black" d="M649.119,-422.561C633.585,-387.962 599.995,-313.148 581.767,-272.55"/>
<polygon fill="black" stroke="black" points="584.879,-270.937 577.59,-263.247 578.493,-273.804 584.879,-270.937"/>
</g>
<!-- document&#45;&gt;module -->
<g id="edge46" class="edge"><title>document&#45;&gt;module</title>
<path fill="none" stroke="black" d="M663.675,-422.404C684.913,-359.497 754.164,-154.366 779.768,-78.5248"/>
<polygon fill="black" stroke="black" points="783.199,-79.3037 783.081,-68.7096 776.567,-77.0647 783.199,-79.3037"/>
</g>
<!-- page -->
<g id="node38" class="node"><title>page</title>
<ellipse fill="lightgrey" stroke="black" cx="770.398" cy="-441" rx="34.8574" ry="18.3848"/>
<text text-anchor="middle" x="770.398" y="-437.4" font-family="Times Roman,serif" font-size="14.00">page</text>
</g>
<!-- page&#45;&gt;entity -->
<g id="edge52" class="edge"><title>page&#45;&gt;entity</title>
<path fill="none" stroke="black" d="M753.606,-424.626C718.166,-390.067 635.581,-309.537 594.1,-269.088"/>
<polygon fill="black" stroke="black" points="596.457,-266.498 586.854,-262.022 591.57,-271.51 596.457,-266.498"/>
</g>
<!-- page&#45;&gt;module -->
<g id="edge50" class="edge"><title>page&#45;&gt;module</title>
<path fill="none" stroke="black" d="M770.48,-422.294C770.722,-384.953 771.673,-298.524 775.398,-226 778.058,-174.208 783.317,-114 786.577,-79.1227"/>
<polygon fill="black" stroke="black" points="790.103,-79.0167 787.56,-68.7316 783.134,-78.3576 790.103,-79.0167"/>
</g>
<!-- backup -->
<g id="node41" class="node"><title>backup</title>
<ellipse fill="lightgrey" stroke="black" cx="869.398" cy="-441" rx="45.9619" ry="18.3848"/>
<text text-anchor="middle" x="869.398" y="-437.4" font-family="Times Roman,serif" font-size="14.00">backup</text>
</g>
<!-- backup&#45;&gt;entity -->
<g id="edge56" class="edge"><title>backup&#45;&gt;entity</title>
<path fill="none" stroke="black" d="M845.101,-425.127C791.256,-389.947 661.887,-305.426 601.481,-265.961"/>
<polygon fill="black" stroke="black" points="595.001,-257.547 601.458,-265.946 591.172,-263.407 595.001,-257.547"/>
</g>
<!-- backup&#45;&gt;module -->
<g id="edge54" class="edge"><title>backup&#45;&gt;module</title>
<path fill="none" stroke="black" d="M862.305,-422.715C850.279,-390.947 825.973,-323.274 813.398,-264 799.509,-198.535 793.309,-119.99 790.836,-78.6648"/>
<polygon fill="black" stroke="black" points="794.321,-78.299 790.259,-68.5136 787.332,-78.6961 794.321,-78.299"/>
</g>
<!-- enum -->
<g id="node44" class="node"><title>enum</title>
<ellipse fill="lightgrey" stroke="black" cx="932.398" cy="-245" rx="39.0967" ry="18.3848"/>
<text text-anchor="middle" x="932.398" y="-241.4" font-family="Times Roman,serif" font-size="14.00">enum</text>
</g>
<!-- enum&#45;&gt;module -->
<g id="edge58" class="edge"><title>enum&#45;&gt;module</title>
<path fill="none" stroke="black" d="M919.455,-227.351C894.219,-192.938 838.32,-116.713 808.696,-76.3154"/>
<polygon fill="black" stroke="black" points="811.357,-74.0266 802.621,-68.0323 805.713,-78.1662 811.357,-74.0266"/>
</g>
<!-- datasource -->
<g id="node46" class="node"><title>datasource</title>
<ellipse fill="lightgrey" stroke="black" cx="1054.4" cy="-245" rx="65.0538" ry="18.3848"/>
<text text-anchor="middle" x="1054.4" y="-241.4" font-family="Times Roman,serif" font-size="14.00">datasource</text>
</g>
<!-- datasource&#45;&gt;module -->
<g id="edge60" class="edge"><title>datasource&#45;&gt;module</title>
<path fill="none" stroke="black" d="M1030.88,-227.695C982.785,-192.304 873.222,-111.682 819.807,-72.3769"/>
<polygon fill="black" stroke="black" points="821.863,-69.5444 811.734,-66.4366 817.714,-75.1825 821.863,-69.5444"/>
</g>
<!-- graph_n -->
<g id="node48" class="node"><title>graph_n</title>
<ellipse fill="lightgrey" stroke="black" cx="984.398" cy="-441" rx="51.1176" ry="18.3848"/>
<text text-anchor="middle" x="984.398" y="-437.4" font-family="Times Roman,serif" font-size="14.00">graph_n</text>
</g>
<!-- graph_n&#45;&gt;entity -->
<g id="edge62" class="edge"><title>graph_n&#45;&gt;entity</title>
<path fill="none" stroke="black" d="M953.205,-426.268C878.304,-390.893 688.499,-301.25 607.248,-262.876"/>
<polygon fill="black" stroke="black" points="608.43,-259.564 597.893,-258.458 605.44,-265.893 608.43,-259.564"/>
</g>
<!-- graph_n&#45;&gt;module -->
<g id="edge64" class="edge"><title>graph_n&#45;&gt;module</title>
<path fill="none" stroke="black" d="M967.619,-423.37C939.677,-393.108 883.514,-328.304 851.398,-264 820.169,-201.474 802.137,-120.603 794.23,-78.4315"/>
<polygon fill="black" stroke="black" points="797.671,-77.7898 792.436,-68.5785 790.784,-79.0438 797.671,-77.7898"/>
</g>
<!-- report -->
<g id="node51" class="node"><title>report</title>
<ellipse fill="lightgrey" stroke="black" cx="984.398" cy="-636" rx="41.2167" ry="18.3848"/>
<text text-anchor="middle" x="984.398" y="-632.4" font-family="Times Roman,serif" font-size="14.00">report</text>
</g>
<!-- report&#45;&gt;entity -->
<g id="edge66" class="edge"><title>report&#45;&gt;entity</title>
<path fill="none" stroke="black" d="M944.407,-631.436C862.137,-619.711 674.448,-580.442 588.398,-460 548.451,-404.088 555.985,-317.957 563.474,-273.59"/>
<polygon fill="black" stroke="black" points="566.961,-273.971 565.298,-263.507 560.073,-272.724 566.961,-273.971"/>
</g>
<!-- report&#45;&gt;module -->
<g id="edge70" class="edge"><title>report&#45;&gt;module</title>
<path fill="none" stroke="black" d="M997.16,-618.315C1022.38,-581.054 1073.71,-492.135 1044.4,-422 1005.86,-329.788 941.218,-346.215 884.398,-264 842.444,-203.296 812.22,-121.076 798.187,-78.3793"/>
<polygon fill="black" stroke="black" points="801.451,-77.0991 795.048,-68.6582 794.79,-79.2499 801.451,-77.0991"/>
</g>
<!-- report&#45;&gt;graph_n -->
<g id="edge68" class="edge"><title>report&#45;&gt;graph_n</title>
<path fill="none" stroke="black" stroke-dasharray="1,5" d="M984.398,-617.303C984.398,-583.088 984.398,-510.202 984.398,-469.679"/>
<polygon fill="black" stroke="black" points="987.898,-459.641 984.398,-469.641 980.898,-459.641 987.898,-459.641"/>
</g>
</g>
</svg>
